<svg xmlns="http://www.w3.org/2000/svg" viewBox="0 0 1200 1166.62"><defs><style>.cls-1{fill:#1d1d1b;}</style></defs><g id="Unito"><path class="cls-1" d="M213.47,626.79a30,30,0,0,1-1.46,4.92,1.36,1.36,0,0,0,0,.17C213.64,628.08,213.91,626.06,213.47,626.79Z"/><path class="cls-1" d="M211.51,732c1.24,2.08,2.66,3.66,0,0Z"/><path class="cls-1" d="M231,748.36c-1.43-.63-1-.41,0,0Z"/><path class="cls-1" d="M793.55,37.52C566-47.58,296.36,14.53,136.18,199.1,58.64,288.45,11.3,399.67,1.74,517.63c-9.92,122.29,23.07,246.31,87.91,350,65,104,159.36,190.32,271,241.73,113.26,52.15,241,70,364,48,233.25-41.61,430.23-225.7,468-462.72a582.91,582.91,0,0,0,7.38-89.56C1199.08,353.87,1026.48,124.64,793.55,37.52Zm240.73,293.14c10.23-19.82,18.3-47.94,12.21-65.66,1.24,1.61,2.5,3.21,3.72,4.83,4.53,6,8.87,12.1,13.21,18.23.21.29.63.92,1,1.55q2.79,4.22,5.51,8.48c7.39,11.64,14.19,23.59,20.79,35.68l1.33,2.4,1.18,2.44c1.11,2.25,2.22,4.5,3.31,6.76q4.48,9.35,8.61,18.86c5.11,11.79,10.85,26.45,14.1,36.21a511.82,511.82,0,0,1,20.08,81.68,517.12,517.12,0,0,1,5.87,78.91c-.41,110-36,219.19-101.2,308-65.38,89-157.14,157.33-260.47,196-108.6,40.59-231.14,46.79-343.41,18.44A557,557,0,0,1,288,1020.1c-46.1-27.87-82.16-58.94-117.76-98.37-.61-.67-2.21-2.53-3.11-3.57q-2.94-3.49-5.83-7-5.91-7.29-11.57-14.78t-11.06-15.15c-.29-.41-3.52-5.2-4.14-6.07-1.53-2.34-3.07-4.68-4.57-7-7.39-11.64-14.17-23.59-20.79-35.68-.18-.33-1-1.84-1.44-2.73q-2.23-4.41-4.38-8.87Q98.5,810.6,94,800.21a486.74,486.74,0,0,1-37.7-153.62c-8.62-111.32,19.3-222.66,78.11-317.47C197.34,227.73,292.54,151.93,401,108.2c-3,4-5.46,7.71-7.29,10.72C347.67,195,304.57,273.11,264,352.24c-34.23,66.7-66.38,134.54-94.64,204-23.59,57.95-45.7,118.64-54.53,180.87-5,35.16-8.22,91.15,28.52,111.94,19.35,11,40.8,9,62.12,9.83,29.25,1.08,58.46,3.4,87.61,6,152.84,13.58,304.86,35.8,457.93,47,51.36,3.74,107.41,10.11,158.25-1.57a90.7,90.7,0,0,0,25.89-10.59c27.88-16.46,54-47.24,64-78.17,7.05-21.7,0-36.21-17.08-49.51-8.7-6.77-18.23-12.48-27.78-17.94-20.27-11.59-49.87,22.1-60.56,35.63a208,208,0,0,0-13.56,18.93c-16.23-.62-32.44-1.55-48.63-2.66-146.91-10.05-292.88-30.87-439.4-45-30.6-2.95-61.23-5.66-91.92-7.47-21.72-1.27-44.09,0-65.56-3.35a21.36,21.36,0,0,1-3.74-1.19c.65.28,1.67.73,3.18,1.42-1.59-.72-3.3-1.18-4.83-2a60.51,60.51,0,0,1-8.9-5.69,61.46,61.46,0,0,1-7.22-7.48c-1.11-1.27-1.86-2.8-2.86-4.15l1.15,1.57a12.67,12.67,0,0,1-.9-1.75,99,99,0,0,1-6.48-24.1c-.28-2.14-.43-4.29-.65-6.43,0-.09,0-.15,0-.24.61-4.94,0-10.36.34-15.33a295.93,295.93,0,0,1,4.44-34.2c1.11-6,2.37-12.06,3.74-18l-.14.32c.07-.15.11-.34.17-.5s.06-.27.1-.41a20.75,20.75,0,0,1,1.37-4.51c.46-2.08.85-4.19,1.36-6.05,8-29.42,18-58.28,28.86-86.75q8.79-23,18.35-45.67c1.37-3.25,2.76-6.5,4.13-9.75l.38-.89c.14-.32.3-.67.46-1.05,3.61-8.2,7.23-16.39,10.92-24.55,14.07-31.11,28.85-61.9,44.1-92.44,27.08-54.25,55.66-107.76,85.28-160.67q15.72-28.07,31.86-55.88l4.45-7.64q3.07-5.2,6.17-10.4c.82-1.37,1.64-2.75,2.47-4.12,3.33-5.49,13.49-22.33,16.26-35.9C549.51,63.77,635.39,59.11,719.07,74c54,9.64,107.11,26.64,156.07,51.57,23.38,11.9,48.78,27,68,40.82q15.38,11.06,30,23.1c5.34,4.41,10.56,8.95,15.78,13.51.57.5,2.7,2.42,3.69,3.31q5,4.67,9.92,9.47Q1014.95,228,1026.59,241c-8.26-4.37-17.7-4.57-25.91,4-20.09,21.07-30.44,50-40.77,76.75-15.39,39.84-29.24,80.28-43.76,120.45-17.42,48.2-35.35,96.26-55.4,143.44q-7.5,17.65-15.44,35.11c-3.41,7.46-6.46,17-10.76,24.78-.57-2.48-1.14-5-1.66-7.47-2.82-13.76-5.09-27.63-7.2-41.52-9-58.83-13.39-119.11-28.82-176.75-7.12-26.62-16.91-64-44.51-76.57-35-15.89-52.22,34.31-59,58.4-18.89,67.72-21.52,139.84-35,208.74q-2.29,11.67-5,23.26c-2.26-3.11-4.46-6.25-6.59-9.45-6.09-9.15-11.72-18.6-17.14-28.17-3-5.38-6-10.81-8.93-16.26q-2.15-4-4.26-8.08c-1.37-2.61-2.86-5-3.34-5.73-6.07-10.69-10.76-22.67-15.94-33.69-40.54-86.18-74.65-175-108.71-263.89-.68-1.77-1.32-3.56-2-5.34-6.81-18.69-27.45-32.82-45.12-18-18.41,15.43-20,46.5-12.32,67.43C458,391.77,489.49,470.36,524,547.38c22.74,50.77,46,103.09,77.5,149.19,11.13,16.3,24.25,34.51,42.4,43.57,19.85,9.9,40.14,1.56,51.76-16.63,9.09-14.24,13-30.59,17.27-46.72,4.82-18,8.51-36.24,11.82-54.55,7-38.89,12.12-78.09,17.9-117.18q.55-3.76,1.13-7.54,1,6.09,2,12.19c5,31.71,8.89,63.57,13.42,95.34,3.9,27.3,8,54.72,15.07,81.4,6.53,24.51,15.67,59.14,41.84,69.89,26.42,10.85,48.34-13.87,60.42-34.2,25.45-42.82,43.62-91,61.77-137.19,31.81-81,55.83-165.83,91.65-245.15,1-2.26,2.1-4.5,3.16-6.74ZM203.39,700c-.55-5.52.06-2.28,0,0Zm0,.19c0,.23,0,.45,0,.64C203.36,700.62,203.35,700.39,203.38,700.18Z"/></g></svg>