<svg id="Layer_1" data-name="Layer 1" xmlns="http://www.w3.org/2000/svg" viewBox="0 0 85 85"><defs><style>.cls-1{fill:#1c1c1c;}</style></defs><path class="cls-1" d="M42.5,0A42.5,42.5,0,1,0,85,42.5,42.5,42.5,0,0,0,42.5,0Zm7.64,65.69c-1.21.23-1.64-.51-1.64-1.14V58a5.69,5.69,0,0,0-1.61-4.41C52.19,53,57.75,51,57.75,41.86a9.15,9.15,0,0,0-2.45-6.38,8.52,8.52,0,0,0-.23-6.3s-2-.64-6.54,2.44a22.53,22.53,0,0,0-11.92,0c-4.54-3.08-6.54-2.44-6.54-2.44a8.52,8.52,0,0,0-.23,6.3,9.2,9.2,0,0,0-2.46,6.38C27.38,51,32.94,53,38.23,53.63a5,5,0,0,0-1.51,3.18c-1.36.59-4.81,1.64-6.93-2a5,5,0,0,0-3.65-2.45s-2.32,0-.16,1.44c0,0,1.56.74,2.64,3.49,0,0,1.38,4.24,8,2.81v4.43c0,.62-.43,1.36-1.62,1.14a23.8,23.8,0,0,1,7.5-46.38l.1,0a23.8,23.8,0,0,1,7.54,46.38Zm-13.7-7.86a.5.5,0,0,1-.45.44c-.28,0-.53-.06-.56-.25s.16-.4.44-.45S36.4,57.64,36.44,57.83Zm-1.82.31c0,.2-.22.36-.5.36s-.52-.15-.52-.34.22-.36.51-.37S34.62,58,34.62,58.14ZM32.68,58c-.06.18-.33.27-.6.19s-.44-.3-.39-.49.33-.27.6-.19S32.73,57.81,32.68,58Zm-1.78-.77c-.13.14-.41.1-.61-.09s-.27-.47-.13-.61a.45.45,0,0,1,.61.09C31,56.81,31,57.09,30.9,57.23Zm-1.28-1.32c-.15.1-.39,0-.53-.21s-.15-.47,0-.57.38,0,.53.2A.43.43,0,0,1,29.62,55.91Zm-.94-1.38c-.11.11-.34.06-.49-.11a.36.36,0,0,1-.07-.49c.12-.11.33-.06.49.11S28.8,54.43,28.68,54.53Zm-1-1.07c0,.12-.23.15-.4.07s-.27-.24-.22-.36.24-.15.41-.07S27.77,53.34,27.71,53.46Z"/></svg>