<svg xmlns="http://www.w3.org/2000/svg" viewBox="0 0 920.22 917.25"><defs><style>.cls-1{fill:#1d1d1b;}</style></defs><g id="Livello_4" data-name="Livello 4"><path class="cls-1" d="M728.35,96.49C578.43-18.58,363.68-33.7,202.52,67.18A431.08,431.08,0,0,0,30.05,273.58C-5.14,362.3-8.81,462.08,15.83,554,40.54,646.15,91.1,731.85,162.5,795.5,234.9,860.06,325.85,902.35,422.36,914c183,22.09,371.43-70.06,453.41-237.82a453.82,453.82,0,0,0,25.86-65C958.1,424.09,881.83,214.29,728.35,96.49ZM840.77,369.34c12.12-12.42,24.52-31.51,24-46.07.55,1.48,1.13,3,1.67,4.44,2,5.48,3.85,11,5.68,16.56.09.27.26.83.43,1.39.74,2.52,1.47,5,2.17,7.57,2.85,10.34,5.19,20.78,7.35,31.27.2.94.33,1.59.44,2.09l.33,2.09c.31,1.92.63,3.85.92,5.78q1.22,8,2.12,16c1.12,9.94,2.05,22.15,2.25,30.15a397.51,397.51,0,0,1-3.64,65.33A403.37,403.37,0,0,1,870.93,566c-25.32,81.73-76.62,154.89-145.34,206.09-68.88,51.32-152.69,81.31-238.35,86.54-90,5.5-182.61-17.77-259.69-64.4a433.38,433.38,0,0,1-98.79-81.67C100.81,681.31,81,650,63.53,612.56c-.3-.64-1.07-2.39-1.51-3.36-.92-2.18-1.84-4.37-2.73-6.57Q56.55,595.87,54,589t-4.78-13.79c-.12-.38-1.44-4.68-1.7-5.46-.61-2.09-1.22-4.18-1.79-6.28-2.85-10.34-5.19-20.77-7.36-31.27-.06-.28-.3-1.59-.45-2.36q-.66-3.79-1.24-7.6-1.32-8.68-2.28-17.44a378.94,378.94,0,0,1,6.9-122.87c18.91-84.78,65-161.26,130.33-218.42,69.85-61.13,157.92-95.86,248.54-103.73-3.12,2.3-5.81,4.49-7.86,6.32C360.79,112.26,311,160.55,262.76,210.18c-40.63,41.84-80,85-116.81,130.24-30.73,37.75-61,77.87-81.7,122.16-11.72,25-26.85,65.94-4.25,89.76,11.91,12.55,28.3,16,44,21.45,21.52,7.46,42.72,15.83,63.82,24.39,110.62,44.87,218.67,96,330,139.09,37.36,14.46,77.61,32,118.09,34.83a70.79,70.79,0,0,0,21.68-2c24.48-5.91,50.91-22.87,65.42-43.59,10.18-14.54,8.26-26.93-1.45-40.72A180.93,180.93,0,0,0,685,666.13c-12.44-13.23-42.13,5.1-53.16,12.73a164,164,0,0,0-14.39,11c-11.93-4.15-23.78-8.53-35.57-13-107-40.89-210.88-89.58-316.67-133.43-22.1-9.15-44.27-18.14-66.69-26.46-15.87-5.89-32.81-10-48-17.41a16.25,16.25,0,0,1-2.51-1.73c.41.36,1.07.92,2,1.78-1-.9-2.19-1.63-3.13-2.62a47.43,47.43,0,0,1-5.33-6.25,49,49,0,0,1-3.67-7.22c-.54-1.2-.75-2.5-1.18-3.73.2.56.36,1,.5,1.43a10.05,10.05,0,0,1-.27-1.51,77,77,0,0,1,.66-19.41c.28-1.65.65-3.28,1-4.92a1.29,1.29,0,0,0,0-.19c1.57-3.54,2.37-7.7,3.74-11.33a228.23,228.23,0,0,1,11.08-24.43c2.2-4.25,4.51-8.44,6.89-12.58l-.18.21c.09-.1.16-.23.24-.33s.11-.2.17-.29a16.09,16.09,0,0,1,2-3c.82-1.44,1.59-2.93,2.39-4.2,12.64-20.07,26.64-39.27,41.21-58q11.76-15.1,24-29.8c1.75-2.11,3.52-4.21,5.29-6.32l.48-.58.59-.67q6.81-7.92,13.7-15.78,26.32-29.93,53.83-58.75,48.75-51.3,100-100.13,18.07-17.31,36.41-34.33l5.05-4.67c2.32-2.11,4.63-4.23,7-6.33l2.77-2.5c3.72-3.34,15.12-13.55,20.26-23,65.27,2.2,130.22,18.27,189.08,48.41,38,19.47,73.63,44.18,104.38,73.87a430.94,430.94,0,0,1,41.29,45.83q8.93,11.72,17.07,24c3,4.5,5.82,9.06,8.66,13.64.32.5,1.46,2.41,2,3.3q2.67,4.62,5.22,9.3,6.48,11.91,12.19,24.22c-5.15-5.13-12.13-7.43-20.2-2.88-19.73,11.1-34,30.28-47.78,47.82-20.51,26.15-40,53.07-60,79.66-23.93,31.9-48.2,63.57-73.85,94.12q-9.58,11.42-19.47,22.6c-4.23,4.78-8.68,11.2-13.64,16,.14-2,.28-4,.47-5.94,1-10.88,2.5-21.72,4.08-32.53,6.72-45.81,17.14-91.66,18.77-138,.75-21.43,2-51.5-15.7-67.09-22.44-19.79-46.66,13.64-57.14,30C541.56,390.72,523.2,443.78,497.46,492q-4.36,8.16-9,16.17-1.47-4.23-2.75-8.52c-2.45-8.19-4.49-16.51-6.34-24.86-1.05-4.7-2-9.41-2.95-14.13q-.69-3.48-1.33-7c-.42-2.25-1-4.39-1.18-5-2.09-9.34-2.85-19.32-4.2-28.69-10.56-73.34-15.73-147.2-20.85-221.06-.11-1.47-.17-3-.25-4.42-.82-15.45-13-30.66-29.48-23.66-17.21,7.29-25.42,30.05-24.5,47.36,3.49,65.58,9,131.2,17.19,196.36,5.38,42.94,10.82,87.17,23.73,128.62,4.57,14.66,10.19,31.19,21.64,42.06,12.51,11.88,29.5,10.29,42.29-.6,10-8.52,16.59-19.81,23.47-30.83,7.68-12.28,14.58-25,21.2-37.89,14.08-27.34,26.78-55.35,40-83.11.85-1.79,1.71-3.57,2.56-5.36q-.63,4.77-1.3,9.52c-3.52,24.72-7.85,49.32-11.7,74-3.31,21.19-6.53,42.52-7.31,64-.71,19.73-1.79,47.56,15.24,61.52s39.11.67,52.73-11.71c28.67-26.07,53.14-57.74,77.16-88,42.08-53,79.25-110.68,124-161.54,1.27-1.45,2.58-2.87,3.88-4.3ZM138.6,455.12c.84-4.23.56-1.68,0,0Zm0,.14c-.06.17-.13.33-.19.47C138.43,455.58,138.48,455.41,138.55,455.26Z"/></g></svg>