<svg id="Livello_1" data-name="Livello 1" xmlns="http://www.w3.org/2000/svg" viewBox="0 0 847.68 133.12"><defs><style>.cls-1{fill:#1d1d1b;}</style></defs><path class="cls-1" d="M0,1.78H12.07V111c0,4.65.83,7.68,2.48,9.11a8.93,8.93,0,0,0,6,2.14,29.58,29.58,0,0,0,6.39-.71c2.13-.47,4-1,5.5-1.42l2.13,9.76a39.59,39.59,0,0,1-8.25,2.31,48.4,48.4,0,0,1-8.43.89q-8.17,0-13-4.82T0,115.09Z"/><path class="cls-1" d="M46.85,93.33V39.23H58.92v52q0,15.72,5.42,23.5t16.06,7.78a32.36,32.36,0,0,0,13.76-3.09,36.39,36.39,0,0,0,11.8-8.83,39.18,39.18,0,0,0,7.81-13.33v-58h12.07v77.58a5.19,5.19,0,0,0,1.06,3.62,4.72,4.72,0,0,0,3.2,1.33v9.58l-3.37.27c-.84.06-1.6.09-2.31.09a10.08,10.08,0,0,1-6.13-2.83,8.69,8.69,0,0,1-2.75-6l-.35-12.37a44.49,44.49,0,0,1-38.87,22.63q-14.56,0-22-10.08T46.85,93.33Z"/><path class="cls-1" d="M192.57,133.12a44.26,44.26,0,0,1-32.92-14.21,48.12,48.12,0,0,1-9.5-15.18,48.89,48.89,0,0,1-3.37-18.09,49.87,49.87,0,0,1,3.37-18.45A47.21,47.21,0,0,1,159.74,52,45.33,45.33,0,0,1,174.38,41.6a44.22,44.22,0,0,1,18.37-3.8A43.64,43.64,0,0,1,211,41.6,45.77,45.77,0,0,1,225.59,52a47.35,47.35,0,0,1,9.58,15.17,50.07,50.07,0,0,1,3.37,18.45,49.1,49.1,0,0,1-3.37,18.09,48.12,48.12,0,0,1-9.5,15.18,44.27,44.27,0,0,1-33.1,14.21ZM159,85.81a38.55,38.55,0,0,0,4.52,18.6,35.15,35.15,0,0,0,12.16,13.21,30.84,30.84,0,0,0,16.86,4.85,30.4,30.4,0,0,0,16.86-4.94,36.07,36.07,0,0,0,12.25-13.48,39.89,39.89,0,0,0,0-37.27,36.34,36.34,0,0,0-12.25-13.39,30.39,30.39,0,0,0-16.86-4.93,29.22,29.22,0,0,0-16.77,5.11A38.39,38.39,0,0,0,159,85.81Z"/><path class="cls-1" d="M283.09,131.34,245.64,39.23h12.6l31.59,80.09L321.6,39.23h11.9l-37.45,92.11Z"/><path class="cls-1" d="M386.92,133.12a44.93,44.93,0,0,1-33.19-14.24,48.34,48.34,0,0,1-9.67-15.29A49.57,49.57,0,0,1,340.6,85a48,48,0,0,1,5.94-23.61A45.87,45.87,0,0,1,363,44.24a44.5,44.5,0,0,1,23.78-6.44q13.67,0,23.88,6.53a46.91,46.91,0,0,1,16.06,17.19,47.75,47.75,0,0,1,5.86,23.35v2.74a8.63,8.63,0,0,1-.18,2H353.2a39.88,39.88,0,0,0,5.59,17.57A35.61,35.61,0,0,0,371,119.39a31.5,31.5,0,0,0,16.42,4.5,33.94,33.94,0,0,0,17.13-4.62,25.41,25.41,0,0,0,11.27-12.07L426.32,110a34.5,34.5,0,0,1-8.69,11.89,41.65,41.65,0,0,1-13.76,8.26A48.38,48.38,0,0,1,386.92,133.12ZM352.84,80.94h68.34a37.78,37.78,0,0,0-5.42-17.57,34.2,34.2,0,0,0-12.24-11.85,32.9,32.9,0,0,0-16.6-4.31,32.44,32.44,0,0,0-16.51,4.31,34.12,34.12,0,0,0-12.15,11.94A37.93,37.93,0,0,0,352.84,80.94Z"/><path class="cls-1" d="M497.32,49.52a38.2,38.2,0,0,0-21.21,6.74,33.88,33.88,0,0,0-12.87,17.58v57.5H451.17V39.23h11.36V61.06a43.82,43.82,0,0,1,12.69-15.8A31.4,31.4,0,0,1,492,38.52c1.19-.12,2.22-.18,3.11-.18a11.49,11.49,0,0,1,2.22.18Z"/><path class="cls-1" d="M587.13,133.12c-5.45,0-9.76-1.64-13-4.91s-4.79-7.65-4.79-13.12v-85A24.48,24.48,0,0,0,567.6,21a16.36,16.36,0,0,0-5.94-7.42q-4.17-2.94-11.63-2.94-6.91,0-11.36,3.55a20.26,20.26,0,0,0-6.48,9.41,42.14,42.14,0,0,0-2.21,13v2.31H549.5v9.59H530v82.88H517.91V48.46H505.13V38.87h12.78V35.5A45,45,0,0,1,521.46,17,27.75,27.75,0,0,1,532.11,4.53Q539.21,0,549.85,0q15.61,0,23.61,7.81t8,19.88V110.4q0,6.57,2.31,8.87a7.9,7.9,0,0,0,5.85,2.31,30.83,30.83,0,0,0,7.1-.8c2.25-.53,4-1,5.15-1.33L604,129.9a25.72,25.72,0,0,1-4.53,1.51,56.13,56.13,0,0,1-6.12,1.23A41.79,41.79,0,0,1,587.13,133.12Z"/><path class="cls-1" d="M656.35,133.12a44.3,44.3,0,0,1-32.93-14.21,47.91,47.91,0,0,1-9.49-15.18,48.9,48.9,0,0,1-3.38-18.09,49.88,49.88,0,0,1,3.38-18.45A47.18,47.18,0,0,1,623.51,52,45.33,45.33,0,0,1,638.15,41.6a44.25,44.25,0,0,1,18.37-3.8,43.68,43.68,0,0,1,18.29,3.8A45.62,45.62,0,0,1,689.36,52a47.18,47.18,0,0,1,9.58,15.17,49.88,49.88,0,0,1,3.38,18.45,48.9,48.9,0,0,1-3.38,18.09,47.91,47.91,0,0,1-9.49,15.18,44.31,44.31,0,0,1-33.1,14.21ZM622.8,85.81a38.44,38.44,0,0,0,4.53,18.6,35.07,35.07,0,0,0,12.16,13.21,30.79,30.79,0,0,0,16.86,4.85,30.42,30.42,0,0,0,16.86-4.94,36.16,36.16,0,0,0,12.25-13.48,40,40,0,0,0,0-37.27,36.42,36.42,0,0,0-12.25-13.39,30.41,30.41,0,0,0-16.86-4.93,29.23,29.23,0,0,0-16.78,5.11A38.46,38.46,0,0,0,622.8,85.81Z"/><path class="cls-1" d="M835.79,39.23h11.89l-39.76,92.11H797.45L778.11,85.55l-19.17,45.79H748.46L708.71,39.23h11.71L754.14,119l17-41.55-15.62-38h10.83l11.72,29.88L790,39.4h10.65l-15.45,38,17,41.55Z"/></svg>